<?xml version="1.0" encoding="utf-8"?>
<!-- Generator: Adobe Illustrator 23.0.3, SVG Export Plug-In . SVG Version: 6.00 Build 0)  -->
<svg version="1.1" baseProfile="tiny" id="Layer_1" xmlns="http://www.w3.org/2000/svg" xmlns:xlink="http://www.w3.org/1999/xlink"
	 x="0px" y="0px" viewBox="0 0 400 65.9" xml:space="preserve">
<g>
	<rect x="136.3" fill="#FBD116" width="16.5" height="8.2"/>
	<rect x="202.2" fill="#FBD116" width="16.5" height="8.2"/>
	<g>
		<g>
			<rect x="350.6" y="41.2" fill="#263779" width="24.7" height="8.2"/>
			<rect x="358.8" y="33" fill="#FBD116" width="24.7" height="8.2"/>
			<rect x="367" y="24.7" fill="#CE2028" width="24.7" height="8.2"/>
		</g>
		<path fill="#1D1B1C" d="M350.5,41.2V24.7H367h24.7h4.4h3.8v-8.2h-54.8h-2.9h0h-2.8h-30h-2.9h0H301h-32.8h0h-41.2v8.2h-8.2v-8.2
			h-16.4H194h-8.2V0h-16.5v16.5h-16.5h-23.7h-1h-10V0h-16.5v16.5H85.2H49.4H0v49.4h16.5V49.4h24.7h8.2v8.2h35.7v-8.2H57.7v-8.2h35.7
			V24.7h8.2v33h16.5v-33h10h1h7.2v24.7v8.2h16.5v-8.2V24.7h16.5v33h16.5v-33h8.2h8.2v24.7v8.2h16.5v-8.2h8.2v8.2h41.2v-8.2h8.2V24.7
			h22v33h8.2h8.2h22.5h5h0h8.9H400v-8.2h-3.8h-20.9h-24h-0.7h0h-8.2h0h-5h-22.4v-8.2H350.5z M314.8,24.7h19.2V33h-19.2V24.7z
			 M41.2,41.2H16.5V24.7h24.7V41.2z M76.9,33H57.7v-8.2h19.2V33z M259.9,49.4h-24.7V24.7h24.7V49.4z"/>
	</g>
</g>
</svg>
